<svg width="108" height="108" viewBox="0 0 108 108" fill="none" xmlns="http://www.w3.org/2000/svg">
<g filter="url(#filter0_d_43_350)">
<path d="M54 100C67.2608 100 79.9785 94.7322 89.3553 85.3553C98.7322 75.9785 104 63.2608 104 50C104 36.7392 98.7322 24.0215 89.3553 14.6447C79.9785 5.26784 67.2608 0 54 0C40.7392 0 28.0215 5.26784 18.6447 14.6447C9.26784 24.0215 4 36.7392 4 50C4 63.2608 9.26784 75.9785 18.6447 85.3553C28.0215 94.7322 40.7392 100 54 100ZM76.0703 40.8203L51.0703 65.8203C49.2344 67.6562 46.2656 67.6562 44.4492 65.8203L31.9492 53.3203C30.1133 51.4844 30.1133 48.5156 31.9492 46.6992C33.7852 44.8828 36.7539 44.8633 38.5703 46.6992L47.75 55.8789L69.4297 34.1797C71.2656 32.3438 74.2344 32.3438 76.0508 34.1797C77.8672 36.0156 77.8867 38.9844 76.0508 40.8008L76.0703 40.8203Z" fill="#1E1E1E"/>
<path d="M76.4239 41.1739L76.7774 40.8203L76.7425 40.7854C78.4294 38.7561 78.2932 35.7353 76.4062 33.828C74.3931 31.7933 71.1063 31.796 69.0761 33.8261L69.076 33.8263L47.7498 55.1716L38.9258 46.3476C38.9254 46.3472 38.925 46.3468 38.9247 46.3465C36.9091 44.3104 33.6245 44.3384 31.5976 46.3438C29.5628 48.3569 29.5655 51.6437 31.5957 53.6739L44.0938 66.172C44.0943 66.1725 44.0948 66.173 44.0953 66.1735C46.1085 68.2067 49.3942 68.2035 51.4239 66.1739L76.4239 41.1739ZM89.0018 85.0018C79.7187 94.2848 67.1282 99.5 54 99.5C40.8718 99.5 28.2813 94.2848 18.9982 85.0018C9.71516 75.7187 4.5 63.1282 4.5 50C4.5 36.8718 9.71516 24.2813 18.9982 14.9982C28.2813 5.71516 40.8718 0.5 54 0.5C67.1282 0.5 79.7187 5.71516 89.0018 14.9982C98.2848 24.2813 103.5 36.8718 103.5 50C103.5 63.1282 98.2848 75.7187 89.0018 85.0018Z" stroke="#C6BABA"/>
</g>
<defs>
<filter id="filter0_d_43_350" x="0" y="0" width="108" height="108" filterUnits="userSpaceOnUse" color-interpolation-filters="sRGB">
<feFlood flood-opacity="0" result="BackgroundImageFix"/>
<feColorMatrix in="SourceAlpha" type="matrix" values="0 0 0 0 0 0 0 0 0 0 0 0 0 0 0 0 0 0 127 0" result="hardAlpha"/>
<feOffset dy="4"/>
<feGaussianBlur stdDeviation="2"/>
<feComposite in2="hardAlpha" operator="out"/>
<feColorMatrix type="matrix" values="0 0 0 0 0 0 0 0 0 0 0 0 0 0 0 0 0 0 0.25 0"/>
<feBlend mode="normal" in2="BackgroundImageFix" result="effect1_dropShadow_43_350"/>
<feBlend mode="normal" in="SourceGraphic" in2="effect1_dropShadow_43_350" result="shape"/>
</filter>
</defs>
</svg>
